<svg width="321" height="190" fill="none" xmlns="http://www.w3.org/2000/svg"><path fill-rule="evenodd" clip-rule="evenodd" d="M233.278 75.278C234.633 62.742 245.387 53 258.053 53c13.774.01 24.937 11.173 24.947 24.947 0 12.662-9.742 23.42-22.278 24.775C259.409 115.258 248.613 125 235.947 125c-13.774-.01-24.937-11.173-24.947-24.947 0-12.662 9.742-23.42 22.278-24.775zm27.658 21.851a19.403 19.403 0 0016.258-16.258h-16.258v16.258zm-44.13 0l.006-.035h16.252V80.87c-8.393 1.279-14.976 7.852-16.252 16.223h-.006v.035zm19.162 22.065c9.598 0 17.749-6.917 19.161-16.258h-38.323c1.412 9.341 9.563 16.258 19.162 16.258zm19.161-38.323v16.258h-16.258V80.871h16.258zm-16.258-5.806h38.323c-1.412-9.342-9.563-16.258-19.162-16.258-9.598 0-17.749 6.916-19.161 16.257z" fill="#00DCFA" opacity=".15"/><path fill-rule="evenodd" clip-rule="evenodd" d="M98.817 144.848c1.184-.747 2.746-.333 3.492.924.744 1.255.389 2.88-.796 3.627a28.005 28.005 0 01-7.686 3.409l-.324.087c-2.652.71-5.485 1.007-8.423.886-1.397-.059-2.513-1.291-2.493-2.753.021-1.46 1.172-2.596 2.569-2.537 2.348.113 4.7-.131 6.974-.725l.322-.086a23.244 23.244 0 006.365-2.832zm3.88-56.984c4.21 6.47 5.929 16.209 4.596 26.065-1.817 13.448-8.74 24.303-16.86 26.476l-.231.062c-8.124 2.173-19.543-3.773-27.833-14.517-6.08-7.872-9.452-17.168-9.036-24.88.417-12.218 8.302-22.462 19.624-25.492 11.288-3.02 23.202 1.883 29.681 12.203l.028.039.011.018.016.024.004.002zm.419 25.339a42.707 42.707 0 01-3.23 11.584c-.176-7.222-3.308-15.769-9.137-23.322-3.048-3.948-6.58-7.288-10.311-9.783 3.456-4.998 7.778-7.486 11.847-6.697 2.605.505 5 2.324 6.921 5.264 3.639 5.565 5.1 14.146 3.91 22.954zm-37.488 10.032c-5.43-7.038-8.45-15.201-8.077-21.84.197-3.506 1.36-6.278 3.365-8.016 3.132-2.713 8.122-2.72 13.609-.115-1.984 4.028-3.379 8.683-4.045 13.624-1.28 9.456.275 18.428 3.732 24.77a42.736 42.736 0 01-8.584-8.423zm26.689 11.246a8.125 8.125 0 01-3.146 1.679 8.121 8.121 0 01-3.564.116c-7.83-1.515-12.843-14.641-10.947-28.663.6-4.448 1.835-8.625 3.601-12.214 3.322 2.228 6.484 5.225 9.229 8.781 8.644 11.201 10.857 25.077 4.827 30.301zm-2.634 3.594l.053.185.05.189-.053-.188-.05-.186zm-1.667-57.34c-4.154.918-8.134 3.961-11.327 8.766-5.17-2.567-10.14-3.218-14.198-1.94a21.899 21.899 0 0111.613-7.708c4.715-1.261 9.56-.877 13.91.88l.002.002z" fill="#49CC68" opacity=".27"/><g opacity=".4"><circle cx="186.897" cy="7.344" r="1.98" stroke="#AEB1C2" stroke-width="1.44"/><circle cx="109.311" cy="46.61" r="1.98" stroke="#AEB1C2" stroke-width="1.44"/><circle cx="210.635" cy="22.802" r="1.98" stroke="#AEB1C2" stroke-width="1.44"/><path d="M106.303 21.365a.531.531 0 00.197-.344.543.543 0 00-.095-.389l-2.302-3.134 3.06-2.32a.531.531 0 00.197-.345.543.543 0 00-.095-.388.545.545 0 00-.75-.114l-3.06 2.32-2.302-3.134a.525.525 0 00-.34-.202.515.515 0 00-.381.093.536.536 0 00-.193.33.635.635 0 00.092.403l2.302 3.134-3.06 2.32a.62.62 0 00-.198.36.544.544 0 00.096.373c.083.11.205.183.34.203.134.02.27-.013.38-.093l3.06-2.32 2.303 3.134a.543.543 0 00.749.114z" fill="#AEB1C2"/><path d="M200.107 47.913h.003-.003l-.376.302.376-.302zm0 0l.002-.002-.002.002zm5.842-1.507h-.001.001zm0 0l.031-.025-.031.025zm-5.778 1.518l.049.008-.049-.008-.009-.002.009.002zm4.322-7.233l.003-.003-.003.003z" fill="#AEB1C2" stroke="#AEB1C2" stroke-width="1.8"/></g><path fill-rule="evenodd" clip-rule="evenodd" d="M146.299 28.811c7.682 2.059 15.578-2.5 17.637-10.182 2.058-7.682-2.501-15.578-10.183-17.636-7.681-2.059-15.578 2.5-17.636 10.182s2.501 15.578 10.182 17.636zm5.149-16.46l1.892 6.127 2.141 2.436-3.267-11.42-.766 2.857zm.821 7.082l-6.479-1.736-2.829.744 11.036 2.957-1.728-1.965zm-6.886-3.113l4.68-4.34.765-2.857-8.191 7.92 2.746-.723zm6.239 1.454l-1.269-4.106-3.151 2.922 4.42 1.184zm1.259-11.164l4.601 16.082a.72.72 0 01-.876.89l-16.625-4.454a.038.038 0 01-.01-.005l-.01-.004a.739.739 0 01-.153-.064c-.013-.007-.024-.017-.036-.026l-.022-.018-.019-.013c-.025-.017-.05-.035-.072-.057a.338.338 0 01-.026-.032l-.019-.025-.018-.022c-.018-.022-.036-.044-.051-.07-.014-.025-.024-.053-.034-.08a4.726 4.726 0 00-.012-.03l-.011-.027a.233.233 0 01-.015-.038v-.001l-.001-.002a.725.725 0 01-.005-.312.701.701 0 01.076-.218l.006-.012a.72.72 0 01.119-.153l12.025-11.627a.47.47 0 01.085-.063l.019-.012a.708.708 0 01.58-.102.706.706 0 01.461.397c.016.032.033.063.043.098zM176.959 57.037c7.682-2.059 12.241-9.955 10.182-17.636-2.058-7.682-9.954-12.241-17.636-10.183-7.682 2.058-12.241 9.955-10.182 17.637 2.058 7.681 9.954 12.24 17.636 10.182zm-3.771-16.83l4.702 4.36 3.071 1.04-8.538-8.257.765 2.858zm4.251 5.723l-6.479 1.736-2.078 2.06 11.036-2.958-2.479-.838zm-7.519.747l1.883-6.098-.766-2.858-3.134 10.955 2.017-1.999zm6.13-1.86l-3.152-2.922-1.268 4.107 4.42-1.185zm-4.491-10.298l12.025 11.627a.718.718 0 01-.314 1.21l-16.625 4.454-.01.001c-.004 0-.008 0-.012.002a.738.738 0 01-.164.02c-.015 0-.029-.002-.044-.004a.45.45 0 00-.051-.006.528.528 0 01-.09-.014.274.274 0 01-.04-.015.471.471 0 00-.055-.022.503.503 0 01-.078-.035c-.025-.014-.048-.033-.071-.052l-.025-.02a.209.209 0 00-.023-.018c-.011-.008-.022-.015-.032-.025l-.001-.001v-.001h-.001a.706.706 0 01-.137-.21l-.024-.059a.732.732 0 01-.043-.226v-.005l-.001-.008a.746.746 0 01.027-.193l4.601-16.081a.415.415 0 01.042-.097l.01-.02a.708.708 0 01.451-.379.707.707 0 01.598.114c.03.02.06.038.087.063zM131.539 63.964c6.888 3.976 15.695 1.617 19.671-5.271 3.977-6.887 1.617-15.694-5.271-19.67-6.887-3.977-15.694-1.617-19.67 5.27-3.977 6.888-1.617 15.694 5.27 19.67zm9.234-14.566l.242 6.407 1.437 2.907-.2-11.876-1.479 2.562zm-1.04 7.052l-5.809-3.354-2.926-.013 9.895 5.712-1.16-2.345zm-5.846-4.789l5.644-2.98 1.479-2.563-9.962 5.53 2.839.013zm5.65 3.02l-.163-4.295-3.8 2.006 3.963 2.288zm4.106-10.458l.281 16.724a.717.717 0 01-1.076.633l-14.906-8.605-.008-.007-.009-.007a.726.726 0 01-.131-.101.395.395 0 01-.045-.057l-.014-.018a.532.532 0 01-.055-.073.258.258 0 01-.017-.039c-.004-.01-.007-.02-.012-.029l-.011-.026c-.012-.026-.024-.052-.031-.08-.008-.027-.01-.057-.013-.087l-.003-.032-.004-.028a.179.179 0 01-.005-.04v-.001-.001-.002a.696.696 0 01.076-.303.701.701 0 01.293-.318l14.625-8.118c.031-.018.065-.028.098-.039l.022-.007a.706.706 0 01.586.052.709.709 0 01.338.482l.004.02c.008.035.016.07.017.107z" fill="#FFD43B"/><g filter="url(#filter0_d)"><rect x="91.571" y="54.244" width="136.759" height="89.021" rx="14.111" fill="#A78AFF"/></g><path d="M179.862 98.177c0-7.793 6.318-14.111 14.112-14.111h28.343c7.793 0 14.111 6.318 14.111 14.111v.577c0 7.794-6.318 14.112-14.111 14.112h-28.343c-7.794 0-14.112-6.318-14.112-14.112v-.577z" fill="#D9CDFF"/><circle cx="194.305" cy="98.644" r="7.056" fill="#EDE8FF"/><path fill-rule="evenodd" clip-rule="evenodd" d="M154.162 112.866c7.965 0 14.422-6.457 14.422-14.422 0-7.966-6.457-14.423-14.422-14.423-7.966 0-14.423 6.457-14.423 14.422 0 7.966 6.457 14.423 14.423 14.423zm5.054-17.75a1.25 1.25 0 10-2.108-1.344l-4.235 6.645-1.801-1.915a1.25 1.25 0 00-1.821 1.713l2.902 3.085a1.249 1.249 0 001.964-.185l5.099-8z" fill="#fff"/><defs><filter id="filter0_d" x="67.571" y="30.244" width="184.759" height="137.021" filterUnits="userSpaceOnUse" color-interpolation-filters="sRGB"><feFlood flood-opacity="0" result="BackgroundImageFix"/><feColorMatrix in="SourceAlpha" values="0 0 0 0 0 0 0 0 0 0 0 0 0 0 0 0 0 0 127 0"/><feOffset/><feGaussianBlur stdDeviation="12"/><feColorMatrix values="0 0 0 0 0.439841 0 0 0 0 0.270347 0 0 0 0 0.954167 0 0 0 0.21 0"/><feBlend in2="BackgroundImageFix" result="effect1_dropShadow"/><feBlend in="SourceGraphic" in2="effect1_dropShadow" result="shape"/></filter></defs></svg>