<svg width="20" height="20" viewBox="0 0 20 20" fill="none" xmlns="http://www.w3.org/2000/svg">
<path fill-rule="evenodd" clip-rule="evenodd" d="M13.3325 16.6666C12.77 16.6666 12.2167 16.5833 11.6767 16.445C11.14 16.5841 10.5792 16.6666 9.99917 16.6666C9.4375 16.6666 8.88417 16.5833 8.34417 16.445C7.80667 16.585 7.24667 16.6666 6.66667 16.6666C2.99083 16.6666 0 13.6758 0 9.99998C0 6.32415 2.99083 3.33331 6.66667 3.33331C7.24583 3.33331 7.80583 3.41498 8.34167 3.55498C8.88167 3.41665 9.43583 3.33331 9.99917 3.33331C10.5792 3.33331 11.1383 3.41498 11.675 3.55498C12.2142 3.41665 12.7692 3.33331 13.3325 3.33331C17.0092 3.33331 20 6.32415 20 9.99998C20 13.6758 17.0092 16.6666 13.3325 16.6666ZM6.66667 4.99998C3.90917 4.99998 1.66667 7.24331 1.66667 9.99998C1.66667 12.7566 3.90917 15 6.66667 15C9.42417 15 11.6675 12.7566 11.6675 9.99998C11.6675 7.24331 9.42417 4.99998 6.66667 4.99998ZM11.2617 5.18165C12.5358 6.39665 13.3342 8.10498 13.3342 9.99998C13.3342 11.895 12.5358 13.6033 11.2617 14.8183C13.4058 14.255 15 12.3183 15 9.99998C15 7.68165 13.4058 5.74498 11.2617 5.18165ZM14.5942 5.18081C15.8683 6.39581 16.6667 8.10498 16.6667 9.99998C16.6667 11.895 15.8683 13.6041 14.5942 14.8191C16.7392 14.2558 18.3333 12.3183 18.3333 9.99998C18.3333 7.68165 16.7392 5.74415 14.5942 5.18081ZM6.66667 9.16665C8.06917 9.16665 9.16667 10.0816 9.16667 11.25C9.16667 12.1725 8.4775 12.9291 7.5 13.21V13.3333C7.5 13.7933 7.1275 14.1666 6.66667 14.1666C6.20583 14.1666 5.83333 13.7933 5.83333 13.3333H5C4.53917 13.3333 4.16667 12.96 4.16667 12.5C4.16667 12.04 4.53917 11.6666 5 11.6666H6.66667C7.18333 11.6666 7.5 11.3966 7.5 11.25C7.5 11.1033 7.18333 10.8333 6.66667 10.8333C5.26417 10.8333 4.16667 9.91748 4.16667 8.74915C4.16667 7.82748 4.855 7.07081 5.83333 6.78998V6.66665C5.83333 6.20665 6.20583 5.83331 6.66667 5.83331C7.1275 5.83331 7.5 6.20665 7.5 6.66665H8.33333C8.79417 6.66665 9.16667 7.03998 9.16667 7.49998C9.16667 7.95998 8.79417 8.33331 8.33333 8.33331L6.66667 8.33331C6.15 8.33331 5.83333 8.60248 5.83333 8.74915C5.83333 8.89665 6.15 9.16665 6.66667 9.16665Z" fill="#495057"/>
</svg>
