<svg width="20" height="20" viewBox="0 0 20 20" fill="none" xmlns="http://www.w3.org/2000/svg">
<path fill-rule="evenodd" clip-rule="evenodd" d="M19.5397 14.9125C19.42 14.9717 19.2928 15 19.1673 15C18.8615 15.0009 18.5675 14.8317 18.421 14.5392L17.7235 13.1434C16.4868 16.2467 13.514 18.3334 10.0004 18.3334C6.18269 18.3334 2.77016 15.8692 1.70285 12.3409C1.56975 11.9009 1.81826 11.4359 2.25883 11.3025C2.6994 11.1684 3.1644 11.4184 3.2975 11.8584C4.15505 14.6892 6.91136 16.6667 10.0004 16.6667C12.8982 16.6667 15.251 14.975 16.2046 12.4125L14.5392 13.245C14.1273 13.4509 13.6278 13.2842 13.4214 12.8725C13.215 12.4609 13.3826 11.9609 13.7937 11.755L17.127 10.0875C17.539 9.88169 18.0385 10.0492 18.2457 10.4609L19.912 13.7942C20.1175 14.2059 19.9507 14.7059 19.5397 14.9125ZM10.0004 10.8334C8.59783 10.8334 7.50019 9.91835 7.50019 8.75002C7.50019 7.82002 8.20022 7.06002 9.19087 6.78419C9.18498 6.74419 9.16729 6.70835 9.16729 6.66669L9.16729 5.83335C9.16729 5.37335 9.53962 5.00002 10.0004 5.00002C10.4604 5.00002 10.8335 5.37335 10.8335 5.83335L10.8335 6.66669L11.6667 6.66669C12.1275 6.66669 12.4998 7.04002 12.4998 7.50002C12.4998 7.96002 12.1275 8.33335 11.6667 8.33335L10.0004 8.33335C9.48318 8.33335 9.16729 8.60335 9.16729 8.75002C9.16729 8.89669 9.48318 9.16669 10.0004 9.16669C11.4022 9.16669 12.4998 10.0817 12.4998 11.25C12.4998 12.1792 11.7998 12.94 10.8099 13.2159C10.8158 13.2559 10.8335 13.2917 10.8335 13.3334V14.1667C10.8335 14.6267 10.4604 15 10.0004 15C9.53962 15 9.16729 14.6267 9.16729 14.1667V13.3334H8.33332C7.87253 13.3334 7.50019 12.96 7.50019 12.5C7.50019 12.04 7.87253 11.6667 8.33332 11.6667H10.0004C10.5168 11.6667 10.8335 11.3967 10.8335 11.25C10.8335 11.1034 10.5168 10.8334 10.0004 10.8334ZM17.742 8.69835C17.2997 8.83169 16.8356 8.58169 16.7025 8.14169C15.8449 5.31085 13.0895 3.33335 10.0004 3.33335C7.10006 3.33335 4.74641 5.02585 3.79367 7.58835L5.46076 6.75419C5.87269 6.54919 6.37307 6.71585 6.57946 7.12752C6.785 7.53919 6.61821 8.04002 6.20628 8.24585L2.87293 9.91169C2.75331 9.97252 2.62611 10 2.50144 10C2.19481 10 1.90165 9.83169 1.75508 9.53919L0.0879848 6.20669C-0.117559 5.79419 0.0492348 5.29335 0.461164 5.08835C0.873936 4.88169 1.37263 5.04919 1.57902 5.46085L2.27652 6.85502C3.51147 3.75335 6.48427 1.66669 10.0004 1.66669C13.8164 1.66669 17.229 4.13085 18.2971 7.65835C18.4311 8.09919 18.1817 8.56419 17.742 8.69835Z" fill="#495057"/>
</svg>
