<svg width="52" height="52" viewBox="0 0 52 52" fill="none" xmlns="http://www.w3.org/2000/svg">
<circle opacity="0.33" cx="26" cy="26" r="26" fill="#DADCE8"/>
<path fill-rule="evenodd" clip-rule="evenodd" d="M29.0428 38.68C29.5236 38.5296 30.0276 38.8207 30.1696 39.3309C30.3115 39.84 30.0372 40.376 29.5564 40.5263C28.5899 40.8349 27.5832 40.9946 26.5699 41H26.4492C25.4622 41 24.4508 40.8389 23.4416 40.521C22.9618 40.3695 22.6886 39.8335 22.8316 39.3234C22.9746 38.8143 23.4797 38.5243 23.9594 38.6757C24.7648 38.9354 25.6042 39.0701 26.4492 39.0753H26.5689C27.4083 39.0696 28.2422 38.9364 29.0428 38.68ZM35.686 19.0889C36.547 21.7494 36.2388 25.3207 34.86 28.6471C32.9792 33.1861 29.5659 36.3385 26.5435 36.3385H26.4577C23.4342 36.3385 20.021 33.1861 18.1401 28.6471C16.7602 25.3207 16.4531 21.7494 17.3141 19.0878C18.5945 14.8484 22.2851 12 26.499 12C30.7001 12 34.3824 14.8334 35.6733 19.0545L35.6797 19.0706L35.6818 19.0781L35.685 19.0878L35.686 19.0889ZM33.4769 28.0016C32.9228 29.352 32.1826 30.6159 31.2784 31.7554C31.8884 29.2099 31.595 25.9232 30.2723 22.7321C29.5808 21.0641 28.6647 19.5636 27.6004 18.3403C29.2652 16.9139 30.9978 16.4477 32.3374 17.1051C33.1952 17.5261 33.8582 18.3875 34.2521 19.5969C34.9987 21.8869 34.7086 25.0285 33.4769 28.0016ZM19.5243 28.0016C18.2926 25.0285 18.0025 21.8869 18.7491 19.5969C19.143 18.3875 19.8049 17.5261 20.6627 17.1051C22.0024 16.4488 23.736 16.9139 25.3997 18.3403C24.3365 19.5647 23.4194 21.0641 22.7289 22.7321C21.4051 25.9232 21.1118 29.211 21.7228 31.7554C20.8186 30.6159 20.0784 29.352 19.5243 28.0016ZM27.7486 34.4406C27.3642 34.6297 26.9438 34.7274 26.5 34.7339C26.0676 34.7306 25.6413 34.6304 25.2514 34.4406C22.6727 33.1764 22.1517 28.11 24.113 23.3777C24.7346 21.8761 25.5522 20.5292 26.499 19.438C27.4457 20.5292 28.2654 21.875 28.8881 23.3777C30.8494 28.11 30.3284 33.1764 27.7486 34.4406ZM26.5 35.4524L26.5011 35.5222V35.5931L26.5 35.5222V35.4524ZM31.2497 15.2169C29.7216 15.1492 28.0568 15.842 26.5011 17.2254C24.9443 15.842 23.2785 15.1481 21.7503 15.2158C23.1195 14.1707 24.7865 13.6053 26.5 13.6047C28.2548 13.6047 29.9016 14.1933 31.2497 15.2158V15.2169Z" fill="#49CC68"/>
</svg>

